<svg xmlns="http://www.w3.org/2000/svg" xmlns:xlink="http://www.w3.org/1999/xlink" width="1000" zoomAndPan="magnify" viewBox="0 0 750 749.999995" height="1000" preserveAspectRatio="xMidYMid meet" version="1.0"><defs><clipPath id="a535032df4"><path d="M 397.078125 542.65625 L 662 542.65625 L 662 731 L 397.078125 731 Z M 397.078125 542.65625 " clip-rule="nonzero"/></clipPath><clipPath id="f59b3a46c5"><path d="M 396 540 L 655 540 L 655 731.515625 L 396 731.515625 Z M 396 540 " clip-rule="nonzero"/></clipPath><clipPath id="872dac7ab0"><path d="M 529.546875 366.078125 L 749.207031 366.078125 L 749.207031 597 L 529.546875 597 Z M 529.546875 366.078125 " clip-rule="nonzero"/></clipPath></defs><path fill="#100f0d" d="M 210.632812 198.933594 L 221.742188 201.878906 L 221.339844 203.398438 L 210.234375 200.457031 Z M 159.996094 231.371094 L 161.453125 231.980469 L 157.644531 241.015625 L 156.191406 240.40625 Z M 143.957031 223.308594 L 145.183594 224.296875 L 139.214844 231.722656 L 137.980469 230.738281 Z M 134.765625 213.234375 L 135.578125 214.582031 L 127.058594 219.699219 L 126.246094 218.347656 Z M 115.898438 206.519531 L 126.386719 202.808594 L 126.917969 204.296875 L 116.421875 208.011719 Z M 172.519531 230.867188 L 174.097656 230.867188 L 174.097656 240.707031 L 172.519531 240.707031 Z M 207.320312 208.34375 L 217.855469 213.191406 L 217.195312 214.625 L 206.660156 209.777344 Z M 188.550781 226.585938 L 192.054688 235.28125 L 190.59375 235.875 L 187.089844 227.175781 Z M 198.554688 219.757812 L 204.980469 227.910156 L 203.742188 228.890625 L 197.316406 220.730469 Z M 235.695312 351.820312 L 227.640625 364.5 L 226.3125 363.65625 L 234.363281 350.976562 Z M 302.117188 367.609375 C 301.535156 371.042969 273.34375 448.367188 240.757812 474.757812 L 239.765625 473.53125 C 271.316406 447.980469 300.011719 370.617188 300.566406 367.347656 C 301.054688 364.507812 292.871094 327.9375 287.253906 304.054688 L 287.230469 303.957031 L 287.234375 303.84375 C 287.464844 296.898438 289.332031 242.160156 290.613281 227.683594 L 266.765625 262.21875 C 265.609375 267.003906 248.074219 339.480469 242.683594 348.316406 C 242.960938 351.128906 243.898438 360.601562 244.902344 371.453125 C 252.632812 342.207031 283.929688 341.84375 284.277344 341.84375 C 284.277344 341.84375 284.277344 341.84375 284.285156 341.84375 L 284.277344 343.421875 C 282.898438 343.421875 250.421875 343.8125 245.390625 376.792969 C 245.410156 376.953125 245.421875 377.125 245.4375 377.285156 C 260.113281 353.058594 282.640625 363.257812 282.875 363.367188 L 282.203125 364.796875 C 281.277344 364.359375 259.570312 354.597656 245.683594 380.03125 C 247.058594 395.421875 248.292969 410.855469 247.878906 412.726562 C 247.023438 416.570312 234.441406 424.183594 233.007812 425.039062 L 232.199219 423.683594 C 237.382812 420.585938 245.800781 414.785156 246.339844 412.390625 C 246.683594 410.832031 245.574219 396.550781 244.101562 380.113281 L 243.894531 380.007812 C 243.953125 379.898438 244.011719 379.804688 244.066406 379.699219 C 243.121094 369.121094 242.03125 357.6875 241.089844 348.199219 L 241.058594 347.914062 L 241.226562 347.675781 C 246.3125 340.207031 265.078125 262.496094 265.261719 261.707031 L 265.378906 261.449219 L 290.859375 224.546875 C 286.886719 221.167969 241.289062 203.664062 210.867188 192.460938 L 211.410156 190.984375 C 230.058594 197.851562 291.011719 220.53125 292.519531 224.109375 C 292.632812 224.375 292.632812 224.652344 292.519531 224.898438 C 291.664062 227.226562 289.835938 273.316406 288.8125 303.796875 C 290.359375 310.378906 302.816406 363.566406 302.117188 367.609375 Z M 101.59375 377.675781 C 92.167969 380.679688 83.679688 380.015625 76.359375 375.660156 C 59.972656 365.921875 54.246094 340.671875 53.550781 337.3125 C 62.378906 322.457031 72.410156 313.070312 73.902344 311.714844 C 88.460938 310.398438 99.917969 313.285156 107.96875 320.269531 C 118.113281 329.070312 119.46875 341.707031 119.609375 343.433594 C 118.6875 345.285156 111.382812 359.882812 101.59375 377.675781 Z M 109.023438 319.09375 C 100.582031 311.765625 88.632812 308.753906 73.496094 310.164062 L 73.242188 310.1875 L 73.050781 310.359375 C 72.867188 310.519531 63.632812 318.707031 54.707031 332.476562 C 48.683594 333.878906 33.652344 357.726562 30.621094 362.632812 L 31.964844 363.460938 C 37.96875 353.753906 47.949219 339.21875 53.042969 335.113281 C 44.742188 348.65625 37.210938 366.96875 38.15625 388.039062 L 39.730469 387.972656 C 38.882812 368.984375 45.046875 352.269531 52.378906 339.34375 C 53.980469 346.222656 60.109375 367.832031 75.546875 377.015625 C 80.136719 379.742188 85.152344 381.109375 90.527344 381.109375 C 93.730469 381.109375 97.070312 380.597656 100.519531 379.632812 C 83.597656 410.242188 59.917969 449.105469 48.578125 449.542969 C 28.835938 450.328125 19.621094 432.75 11.113281 404.191406 C 2.0625 373.820312 26.863281 336.085938 27.117188 335.710938 L 27.269531 335.480469 L 27.246094 335.210938 C 24.660156 302.082031 20.597656 238.417969 23.382812 230.054688 C 58.742188 230.773438 76.121094 303.316406 76.292969 304.054688 L 77.828125 303.699219 C 77.117188 300.667969 60.34375 230.632812 24.523438 228.507812 C 32.625 221.695312 85.238281 203.972656 120.640625 193.125 L 120.179688 191.617188 C 110.574219 194.5625 26.191406 220.617188 22.132812 228.902344 C 18.121094 237.074219 25.125 328.289062 25.65625 335.0625 C 23.554688 338.320312 0.71875 374.824219 9.601562 404.640625 C 18.132812 433.304688 27.492188 451.144531 47.328125 451.144531 C 47.757812 451.144531 48.195312 451.132812 48.632812 451.121094 C 68.203125 450.371094 118.964844 348.285156 121.121094 343.945312 L 121.207031 343.757812 L 121.199219 343.554688 C 121.167969 342.964844 120.382812 328.964844 109.023438 319.09375 " fill-opacity="1" fill-rule="nonzero"/><path fill="#3e5bb2" d="M 139.601562 174.664062 L 120.410156 192.375 C 120.410156 192.375 142.695312 242.15625 178.257812 230.75 C 213.824219 219.34375 211.140625 191.722656 211.140625 191.722656 L 190.847656 179.933594 Z M 94.910156 302.667969 C 94.910156 302.667969 89.476562 289.988281 78.601562 299.847656 C 73.046875 304.890625 69.703125 310.59375 67.753906 314.960938 C 65.894531 319.144531 66.585938 324.007812 69.492188 327.542969 C 77.683594 337.484375 96.332031 356.5625 110.96875 345.132812 C 130.292969 330.039062 125.710938 323.195312 94.910156 302.667969 Z M 229.792969 438.859375 C 256.101562 468.378906 259.066406 632.773438 259.066406 632.773438 L 76.386719 678.496094 C 76.386719 678.496094 56.925781 559.082031 55.316406 518.734375 C 53.710938 478.390625 78.398438 438.859375 78.398438 438.859375 L 229.792969 438.859375 " fill-opacity="1" fill-rule="nonzero"/><path fill="#edaa98" d="M 104.90625 333.023438 L 119.308594 306.054688 C 165.929688 285.523438 176.582031 269.023438 172.753906 266.96875 C 168.929688 264.910156 147.726562 277.277344 147.726562 277.277344 C 177.761719 259.878906 185.863281 255.957031 182.242188 251.214844 C 178.625 246.464844 166.3125 254.933594 166.3125 254.933594 C 184.027344 245.875 185.90625 240.140625 181.613281 238.429688 C 177.148438 236.648438 136.515625 254.933594 136.515625 254.933594 C 136.515625 254.933594 158.660156 234 163.898438 228.457031 C 169.125 222.910156 163.089844 215.480469 157.65625 220.921875 C 152.21875 226.351562 110.542969 260.96875 110.542969 260.96875 C 109.140625 259.566406 115.578125 246.882812 118.398438 238.828125 C 121.21875 230.78125 113.765625 218.097656 109.941406 228.457031 C 106.113281 238.8125 94.238281 257.347656 92.027344 265.199219 C 89.808594 273.046875 92.027344 297.402344 92.027344 297.402344 L 81.355469 314.910156 C 90.214844 336.246094 104.90625 333.023438 104.90625 333.023438 Z M 217.324219 131.75 C 215.480469 139.394531 207.4375 171.386719 202.058594 174.539062 C 199.804688 175.875 194.15625 175.320312 192.546875 175.667969 C 189.777344 176.265625 191.292969 179.707031 190.738281 182.515625 C 190.355469 184.5 189.140625 186.234375 187.410156 187.277344 C 180.960938 191.117188 163.910156 197.898438 142.699219 179.394531 C 141.324219 178.191406 140.433594 176.523438 140.242188 174.707031 L 137.148438 145.933594 C 136.847656 143.160156 134.976562 140.765625 132.324219 139.929688 C 128.808594 138.808594 123.632812 135.832031 118.761719 127.960938 C 113.667969 119.714844 116.742188 112.984375 122.027344 110.355469 C 122.027344 110.355469 140.210938 121.535156 137.796875 113.679688 C 135.382812 105.828125 142.417969 75.632812 142.417969 75.632812 L 137.796875 70.8125 L 145.441406 73.621094 C 165.171875 61.351562 200.796875 70.011719 207.640625 71.410156 C 214.503906 72.8125 216.222656 86.132812 216.222656 86.132812 L 216.203125 86.152344 C 216.597656 89.226562 216.695312 92.378906 216.28125 95.582031 C 214.21875 111.394531 216.472656 124.355469 217.375 128.628906 C 217.59375 129.667969 217.578125 130.722656 217.324219 131.75 " fill-opacity="1" fill-rule="nonzero"/><path fill="#ffffff" d="M 204.363281 145.039062 C 204.363281 145.039062 193.023438 152.554688 167.382812 146.382812 C 167.382812 146.382812 181.476562 160.203125 192.214844 157.519531 C 202.953125 154.839844 204.363281 145.039062 204.363281 145.039062 Z M 175.570312 111.730469 C 175.570312 111.730469 165.03125 103.875 151.417969 108.777344 C 151.417969 108.777344 153.152344 117.714844 162.152344 119.25 C 175.570312 121.527344 175.570312 111.730469 175.570312 111.730469 Z M 204.363281 117.636719 C 195.574219 119.648438 195.4375 111.464844 195.4375 111.464844 C 202.28125 103.144531 213.28125 105.964844 213.28125 105.964844 C 213.28125 105.964844 213.152344 115.621094 204.363281 117.636719 " fill-opacity="1" fill-rule="nonzero"/><path fill="#100f0d" d="M 170.382812 275.320312 L 169.570312 273.964844 C 169.101562 274.242188 167.585938 274.949219 166.75 274.5625 C 166.613281 274.5 166.207031 274.308594 166.046875 273.355469 C 165.660156 271.007812 171.425781 269.253906 173.476562 268.820312 L 173.148438 267.277344 C 172.1875 267.480469 163.785156 269.371094 164.496094 273.613281 C 164.742188 275.085938 165.5 275.71875 166.089844 275.988281 C 166.492188 276.175781 166.921875 276.25 167.347656 276.25 C 168.777344 276.25 170.1875 275.4375 170.382812 275.320312 Z M 177.300781 258.925781 C 177.238281 258.925781 175.824219 258.886719 175.824219 256.472656 C 175.824219 254.367188 180.664062 252.796875 182.359375 252.414062 L 182.007812 250.875 C 181.214844 251.054688 174.246094 252.734375 174.246094 256.472656 C 174.246094 259.640625 176.234375 260.496094 177.289062 260.5 Z M 177.90625 248.761719 L 177.84375 247.191406 C 177.824219 247.1875 176.445312 247.230469 175.664062 246.472656 C 175.300781 246.121094 175.121094 245.640625 175.121094 245 C 175.121094 243.25 179.390625 241.09375 182.425781 240.117188 L 181.941406 238.621094 C 181.082031 238.890625 173.542969 241.414062 173.542969 245 C 173.542969 246.078125 173.886719 246.957031 174.574219 247.617188 C 175.699219 248.695312 177.375 248.769531 177.800781 248.769531 C 177.855469 248.769531 177.894531 248.769531 177.90625 248.761719 Z M 163.386719 229.929688 L 163.058594 228.382812 C 162.941406 228.414062 160.144531 228.96875 159.375 226.734375 C 158.777344 224.996094 161.882812 221.765625 163.976562 220.132812 L 163.007812 218.886719 C 162.363281 219.386719 156.726562 223.894531 157.882812 227.246094 C 158.648438 229.460938 160.679688 230.039062 162.234375 230.039062 C 162.664062 230.039062 163.058594 229.996094 163.386719 229.929688 Z M 113.015625 234.855469 C 117.269531 231.496094 114.277344 224.554688 114.148438 224.257812 L 112.707031 224.890625 C 112.730469 224.953125 115.34375 231.007812 112.035156 233.617188 C 110.875 234.535156 109.871094 234.929688 109.140625 234.746094 C 108.460938 234.578125 108.171875 233.953125 108.160156 233.933594 L 106.707031 234.542969 C 106.921875 235.042969 107.582031 235.972656 108.730469 236.265625 C 108.984375 236.335938 109.242188 236.367188 109.507812 236.367188 C 110.5625 236.367188 111.738281 235.859375 113.015625 234.855469 Z M 119.691406 306.746094 L 118.925781 305.367188 L 115.601562 307.207031 L 116.363281 308.585938 Z M 177.097656 260.804688 L 176.277344 259.460938 L 140.9375 281.066406 L 141.757812 282.40625 Z M 173.710938 251.726562 L 172.910156 250.363281 L 136.113281 272.066406 L 136.914062 273.421875 Z M 130.847656 260.734375 L 129.832031 259.527344 L 136.007812 254.332031 L 137.027344 255.539062 L 130.847656 260.734375 " fill-opacity="1" fill-rule="nonzero"/><path fill="#100f0d" d="M 251.648438 515.390625 C 244.195312 455.757812 230.960938 439.039062 230.402344 438.359375 L 229.183594 439.359375 C 229.316406 439.523438 242.683594 456.40625 250.082031 515.589844 C 257.507812 574.9375 257.453125 630.808594 257.453125 631.371094 L 259.027344 631.371094 C 259.027344 630.816406 259.082031 574.851562 251.648438 515.390625 Z M 109.835938 442.832031 L 76.496094 483.226562 L 80.019531 488.621094 L 114.675781 446.96875 Z M 109.644531 440.589844 L 116.882812 446.777344 L 79.867188 491.269531 L 74.539062 483.113281 Z M 220.601562 529.925781 L 173.453125 564.828125 L 214.984375 546.6875 L 215.617188 548.128906 L 168.222656 568.835938 L 176 653.6875 L 174.429688 653.835938 L 166.558594 567.972656 L 187.132812 552.742188 L 187.132812 449.59375 L 188.710938 449.59375 L 188.710938 551.574219 L 219.660156 528.65625 L 220.601562 529.925781 " fill-opacity="1" fill-rule="nonzero"/><path fill="#ffffff" d="M 196.175781 424.363281 L 196.175781 449.304688 C 184.460938 450.265625 172.097656 450.46875 159.9375 450.253906 L 159.9375 424.363281 L 196.175781 424.363281 " fill-opacity="1" fill-rule="nonzero"/><path fill="#100f0d" d="M 190.738281 429.0625 L 167.382812 429.0625 L 167.382812 444.5625 L 190.738281 444.5625 Z M 196.175781 424.363281 L 196.175781 449.304688 C 209.597656 448.203125 222.164062 446.132812 232.609375 442.664062 L 232.609375 424.363281 Z M 78.140625 424.363281 L 159.9375 424.363281 L 159.9375 450.253906 C 116.777344 449.367188 76.199219 442.664062 76.199219 442.664062 L 78.140625 424.363281 " fill-opacity="1" fill-rule="nonzero"/><path fill="#100f0d" d="M 182.132812 213.605469 C 182.132812 211.960938 181.175781 210.566406 180.042969 210.566406 C 178.910156 210.566406 177.949219 211.960938 177.949219 213.605469 C 177.949219 215.253906 178.910156 216.640625 180.042969 216.640625 C 181.175781 216.640625 182.132812 215.253906 182.132812 213.605469 Z M 183.707031 213.605469 C 183.707031 216.148438 182.0625 218.214844 180.042969 218.214844 C 178.023438 218.214844 176.371094 216.148438 176.371094 213.605469 C 176.371094 211.066406 178.023438 208.992188 180.042969 208.992188 C 182.0625 208.992188 183.707031 211.066406 183.707031 213.605469 Z M 204.472656 188.476562 L 194.582031 220.550781 L 171.714844 196.207031 L 176.683594 231.117188 L 175.125 231.339844 L 170.09375 196.035156 L 150.71875 225.753906 L 124.070312 189.820312 L 125.339844 188.882812 L 150.632812 222.996094 L 170.46875 192.578125 L 193.871094 217.496094 L 202.972656 188.015625 L 204.472656 188.476562 " fill-opacity="1" fill-rule="nonzero"/><path fill="#100f0d" d="M 224.65625 68.304688 C 222.085938 77.273438 216.222656 86.132812 216.222656 86.132812 C 216.222656 86.132812 214.503906 72.8125 207.640625 71.410156 C 200.796875 70.011719 165.171875 61.351562 145.441406 73.621094 L 137.796875 70.8125 L 142.417969 75.632812 C 142.417969 75.632812 135.382812 105.828125 137.796875 113.679688 C 140.210938 121.535156 122.027344 110.355469 122.027344 110.355469 C 116.929688 100.796875 107.378906 80.339844 112.835938 70.195312 C 119.863281 57.109375 133.367188 62.160156 134.136719 62.453125 C 133.664062 62.109375 128.789062 57.914062 147.449219 44.433594 C 155.5 38.632812 164.917969 38 174.726562 39.488281 C 152.90625 45.574219 143.457031 66 143.347656 66.261719 L 144.789062 66.902344 C 144.90625 66.648438 155.074219 44.710938 178.695312 40.191406 C 184.078125 41.28125 189.542969 42.886719 194.917969 44.515625 C 173.800781 49.054688 157.144531 60.132812 156.910156 60.292969 L 157.792969 61.597656 C 158.039062 61.433594 175.988281 49.492188 198.097656 45.476562 C 204.382812 47.378906 210.511719 49.175781 216.222656 50.082031 C 225.714844 51.578125 226.871094 58.703125 225.191406 66.230469 C 223.035156 63.25 220.332031 60.921875 217.089844 59.277344 C 203.277344 52.261719 184.835938 59.890625 184.058594 60.21875 L 184.667969 61.671875 C 184.855469 61.59375 203.21875 54 216.375 60.679688 C 219.777344 62.40625 222.523438 64.980469 224.65625 68.304688 Z M 170.179688 147.816406 C 174.515625 151.476562 184.300781 158.675781 192.023438 156.753906 C 199.59375 154.863281 202.28125 149.34375 203.175781 146.5625 C 199.378906 148.304688 188.863281 151.734375 170.179688 147.816406 Z M 189.28125 158.65625 C 178.902344 158.65625 167.363281 147.46875 166.835938 146.945312 L 164.796875 144.949219 L 167.566406 145.613281 C 192.578125 151.636719 203.816406 144.457031 203.925781 144.382812 L 205.390625 143.414062 L 205.140625 145.152344 C 205.125 145.257812 203.53125 155.503906 192.40625 158.28125 C 191.382812 158.539062 190.34375 158.65625 189.28125 158.65625 Z M 182.117188 138.894531 L 181.507812 137.441406 L 186.609375 135.292969 L 187.21875 136.746094 Z M 191.710938 139.441406 L 190.707031 138.230469 C 192.71875 136.554688 195.921875 133.269531 195.921875 131.589844 C 195.921875 129.785156 191.703125 121.601562 189.042969 116.859375 L 190.417969 116.089844 C 191.144531 117.382812 197.5 128.78125 197.5 131.589844 C 197.5 134.558594 192.300781 138.949219 191.710938 139.441406 Z M 191.085938 184.042969 L 189.523438 183.832031 L 190.445312 177.023438 C 186.46875 176.265625 168.074219 172.625 158.59375 168.128906 C 147.90625 163.058594 143.96875 147.46875 143.800781 146.808594 L 145.335938 146.425781 C 145.375 146.585938 149.265625 161.957031 159.269531 166.707031 C 169.519531 171.566406 191.246094 175.570312 191.46875 175.605469 L 192.210938 175.742188 Z M 133.183594 124.65625 C 128.101562 117.222656 120.523438 120.28125 120.449219 120.3125 L 119.839844 118.859375 C 119.925781 118.828125 128.683594 115.28125 134.480469 123.761719 Z M 211.097656 91.910156 L 213.644531 96.746094 C 203.890625 93.480469 195.035156 100.328125 195.035156 100.328125 L 195.035156 96.03125 C 202.546875 87.714844 211.097656 91.910156 211.097656 91.910156 Z M 175.316406 100.863281 C 170.773438 96.03125 151.417969 98.851562 151.417969 98.851562 L 155.4375 94.289062 C 170.203125 88.921875 176.042969 97.375 176.042969 97.375 Z M 161.175781 119.046875 C 164.691406 105.695312 175.316406 113.378906 175.316406 113.378906 C 172.988281 122.40625 161.175781 119.046875 161.175781 119.046875 Z M 151.417969 109.382812 L 151.417969 107.707031 C 165.109375 102.011719 176.042969 111.730469 176.042969 111.730469 C 162.621094 104.074219 151.417969 109.382812 151.417969 109.382812 Z M 214.089844 105.503906 C 214.089844 105.503906 211.539062 103.277344 205.765625 104.554688 C 200 105.828125 195.035156 111.261719 195.035156 111.261719 C 195.035156 111.261719 206.4375 104.148438 213.554688 106.566406 Z M 201.203125 117.929688 C 202.214844 105.957031 212.625 109.664062 212.625 109.664062 C 210.417969 118.609375 201.203125 117.929688 201.203125 117.929688 " fill-opacity="1" fill-rule="nonzero"/><path fill="#d57961" d="M 354.148438 280.042969 C 332.304688 276.148438 316.816406 239.539062 310.101562 220.242188 C 308.285156 225.445312 307.089844 231.167969 306.628906 237.457031 C 300.996094 313.9375 384.992188 418.195312 384.992188 418.195312 L 392.292969 415.800781 Z M 681.167969 387.566406 L 636.402344 407.320312 C 636.402344 407.320312 592.902344 363.492188 583.25 338.109375 C 583.25 338.109375 560.527344 326.851562 545.058594 316.871094 C 549.769531 285.621094 577.085938 270.695312 595.207031 264.152344 C 611.210938 290.007812 623.910156 313.339844 623.910156 313.339844 C 623.910156 313.339844 664.738281 341.246094 681.167969 387.566406 " fill-opacity="1" fill-rule="nonzero"/><path fill="#100f0d" d="M 583.757812 112.300781 C 576.746094 125.511719 568.972656 129.773438 564.84375 131.148438 C 560.660156 122.585938 578.136719 126.484375 578.007812 100.945312 C 577.964844 92.65625 576.339844 84.625 573.476562 77.488281 C 580.6875 85.40625 590.53125 99.535156 583.757812 112.300781 Z M 493.289062 64.117188 L 491.71875 64.296875 C 490.171875 50.363281 504.746094 45.550781 504.894531 45.5 L 505.375 47.003906 C 504.820312 47.179688 491.882812 51.484375 493.289062 64.117188 Z M 482.902344 63.25 L 481.375 62.847656 C 481.390625 62.773438 483.222656 55.402344 478.898438 49.140625 C 475.523438 44.261719 469.363281 41.292969 460.589844 40.328125 L 460.761719 38.761719 C 470.019531 39.777344 476.558594 42.976562 480.203125 48.265625 C 484.933594 55.125 482.988281 62.917969 482.902344 63.25 Z M 418.773438 40.867188 C 422.15625 36.742188 427.128906 32.734375 434.382812 29.53125 C 454.652344 20.59375 464.324219 28.574219 467.691406 32.707031 C 464.851562 32.96875 461.964844 32.738281 459.140625 31.976562 C 446.703125 28.589844 430.902344 32.097656 418.773438 40.867188 Z M 390.371094 122.992188 C 381.78125 132.472656 379.632812 143.320312 380.164062 152.996094 C 379.625 149.824219 379.421875 146.574219 379.570312 143.316406 C 379.976562 134.558594 382.972656 127.007812 387.371094 123.621094 C 394.011719 118.507812 398.992188 110.503906 401.839844 105.121094 C 400.886719 109.589844 397.828125 114.757812 390.371094 122.992188 Z M 571.523438 73.140625 C 565.152344 60.402344 554.613281 51.417969 542.210938 50.679688 C 521.902344 49.472656 526.878906 36.59375 505.132812 27.738281 C 493.484375 22.988281 483.957031 25.871094 477.617188 29.566406 C 475.066406 31.058594 472.304688 32.011719 469.464844 32.488281 C 466.320312 28.359375 455.882812 18.328125 433.75 28.089844 C 423.597656 32.566406 417.75 38.597656 414.417969 44.398438 C 407.09375 51.023438 401.742188 59.84375 400.378906 70.40625 C 398.21875 87.125 401.902344 94.109375 402.171875 100.894531 C 400.070312 105.359375 394.398438 116.21875 386.410156 122.371094 C 381.652344 126.035156 378.425781 134.035156 378 143.25 C 377.644531 150.941406 379.109375 158.410156 382.152344 165.085938 C 384.535156 173.855469 388.101562 179.890625 388.101562 179.890625 L 404.136719 184.003906 C 400.035156 174.769531 387.011719 142.164062 402.867188 132.921875 C 420.457031 122.667969 427.726562 99.976562 428.179688 88.085938 C 428.253906 86.070312 428.199219 83.929688 428.136719 81.65625 C 427.855469 70.40625 427.492188 56.394531 444.5625 49.015625 C 450.214844 46.570312 455.027344 46.507812 458.851562 48.832031 C 466.304688 53.359375 467.222656 65.226562 467.261719 65.722656 L 465.691406 65.839844 C 465.683594 65.722656 464.785156 54.277344 458.027344 50.179688 C 454.667969 48.140625 450.34375 48.234375 445.183594 50.464844 C 429.09375 57.421875 429.425781 70.277344 429.714844 81.621094 C 429.777344 83.910156 429.832031 86.078125 429.757812 88.148438 C 429.289062 100.371094 421.792969 123.707031 403.664062 134.28125 C 388.417969 143.175781 402.984375 177.621094 406.101562 184.511719 L 413.511719 186.414062 C 412.535156 176.824219 411.167969 159.871094 412.6875 151.351562 C 414.917969 138.84375 428.789062 138.0625 428.925781 138.058594 L 429 139.628906 C 428.484375 139.65625 416.25 140.371094 414.242188 151.628906 C 412.742188 160.023438 414.183594 177.421875 415.144531 186.832031 L 547.347656 220.746094 C 545.273438 213.542969 541.089844 196.730469 541.421875 179.277344 C 541.695312 165.042969 547.886719 159.574219 552.402344 155.578125 C 555.445312 152.894531 557.636719 150.953125 557.496094 147.421875 C 557.335938 143.613281 555.511719 140.925781 553.40625 137.808594 C 550.375 133.332031 546.9375 128.265625 548.035156 118.667969 C 548.699219 112.878906 551.722656 107.859375 554.65625 103.003906 C 560.003906 94.140625 565.054688 85.765625 556.613281 73.054688 C 553.613281 68.527344 549.574219 65.792969 544.609375 64.929688 C 531.417969 62.640625 515.804688 74.136719 515.648438 74.253906 L 514.707031 72.992188 C 515.328125 72.523438 529.417969 62.171875 542.691406 63.132812 C 522.894531 54.652344 501.449219 67.195312 501.214844 67.339844 L 500.410156 65.984375 C 500.667969 65.828125 526.613281 50.597656 548.425781 64.351562 C 552.226562 65.785156 555.417969 68.402344 557.933594 72.183594 C 566.914062 85.726562 561.371094 94.921875 556.003906 103.816406 C 553.164062 108.527344 550.226562 113.402344 549.605469 118.847656 C 548.570312 127.863281 551.691406 132.472656 554.710938 136.921875 C 556.859375 140.101562 558.894531 143.101562 559.074219 147.355469 C 559.246094 151.636719 556.558594 154.011719 553.449219 156.761719 C 548.90625 160.777344 543.257812 165.765625 543 179.308594 C 542.65625 197.339844 547.195312 214.6875 549.125 221.203125 L 560.699219 224.171875 C 560.699219 224.171875 546.605469 199.617188 565.527344 181.75 C 583.84375 164.464844 570.882812 141.839844 565.625 132.585938 C 570.136719 131.046875 578.003906 126.503906 585.148438 113.039062 C 593.574219 97.164062 578.675781 80.050781 571.523438 73.140625 " fill-opacity="1" fill-rule="nonzero"/><path fill="#ffffff" d="M 570.765625 420.46875 L 465.449219 396.863281 L 481.460938 358.621094 C 481.460938 358.621094 487.152344 326.25 472.785156 325.9375 C 465.949219 325.777344 456.820312 332.730469 454.398438 348.757812 C 451.742188 366.378906 456.148438 393.242188 456.148438 393.242188 L 397.636719 414.039062 L 392.292969 415.800781 L 354.148438 280.042969 C 332.304688 276.148438 316.816406 239.539062 310.101562 220.242188 C 330.066406 162.242188 425.003906 169.023438 425.003906 169.023438 L 513.140625 188.285156 C 513.140625 188.285156 548.625 195.996094 573.171875 230.613281 C 580.632812 241.132812 588.234375 252.875 595.207031 264.152344 C 577.085938 270.695312 549.769531 285.621094 545.058594 316.871094 C 539.441406 313.242188 534.777344 309.777344 532.503906 307.097656 L 511.84375 344.933594 C 511.84375 344.933594 557.46875 383.691406 570.765625 420.46875 " fill-opacity="1" fill-rule="nonzero"/><path fill="#3e5bb2" d="M 450.171875 323.796875 L 406.085938 304.140625 L 430.230469 237.851562 L 463.464844 246.914062 L 450.171875 323.796875 " fill-opacity="1" fill-rule="nonzero"/><path fill="#100f0d" d="M 511.460938 343.992188 L 504.5625 341.875 L 504.097656 343.382812 L 511.453125 345.636719 C 513.796875 347.652344 556.144531 384.429688 569.519531 419.378906 L 466.539062 396.304688 L 482.1875 358.921875 L 482.230469 358.753906 C 482.398438 357.847656 486.054688 336.511719 479.335938 328.324219 C 477.652344 326.273438 475.453125 325.210938 472.804688 325.148438 C 465.042969 325.019531 455.980469 332.980469 453.621094 348.636719 C 451.203125 364.65625 454.621094 388.488281 455.265625 392.71875 L 397.390625 413.289062 L 392.828125 414.792969 L 354.90625 279.832031 C 346.695312 248.046875 382.503906 221.140625 382.859375 220.878906 L 381.929688 219.609375 C 381.5625 219.878906 345.84375 246.730469 353.113281 279 C 350.125 278.300781 347.253906 276.988281 344.511719 275.175781 L 350.851562 258.433594 L 349.378906 257.871094 L 343.175781 274.253906 C 337.871094 270.386719 333.066406 264.714844 328.816406 258.253906 L 341.859375 242.796875 L 340.65625 241.777344 L 327.925781 256.867188 C 324.328125 251.214844 321.140625 245.035156 318.394531 238.976562 L 329.9375 227.4375 L 328.824219 226.320312 L 317.703125 237.4375 C 314.980469 231.296875 312.714844 225.335938 310.933594 220.242188 C 330.671875 163.757812 424 169.742188 424.835938 169.785156 L 512.96875 189.054688 C 513.328125 189.128906 548.453125 197.117188 572.53125 231.070312 C 579.082031 240.308594 586.3125 251.292969 594.023438 263.742188 C 590.785156 264.941406 587.136719 266.46875 583.324219 268.371094 L 574.570312 259.613281 L 573.457031 260.730469 L 581.847656 269.117188 C 576.535156 271.871094 570.972656 275.363281 565.785156 279.714844 L 555.808594 270.097656 L 554.71875 271.234375 L 564.578125 280.746094 C 559.621094 285.078125 555.074219 290.253906 551.476562 296.367188 L 540.984375 289.722656 L 540.140625 291.054688 L 550.6875 297.734375 C 547.800781 302.976562 545.617188 308.882812 544.472656 315.546875 C 538.855469 311.863281 535.042969 308.863281 533.132812 306.609375 L 523.109375 290.972656 L 521.785156 291.824219 L 531.589844 307.128906 Z M 544.625 317.535156 L 545.65625 318.195312 L 545.835938 316.988281 C 550.582031 285.542969 578.976562 270.847656 595.472656 264.890625 L 596.390625 264.558594 L 595.878906 263.734375 C 587.953125 250.917969 580.527344 239.625 573.820312 230.15625 C 549.371094 195.6875 513.664062 187.589844 513.308594 187.515625 L 425.058594 168.234375 C 424.101562 168.164062 329.285156 162.082031 309.351562 219.984375 L 309.265625 220.242188 L 309.355469 220.5 C 316.558594 241.195312 331.835938 276.378906 353.519531 280.726562 L 391.753906 416.8125 L 397.902344 414.777344 L 457.027344 393.761719 L 456.925781 393.113281 C 456.882812 392.847656 452.570312 366.175781 455.179688 348.875 C 457.40625 334.121094 465.726562 326.5625 472.769531 326.722656 C 474.96875 326.773438 476.71875 327.625 478.117188 329.328125 C 484.175781 336.699219 480.941406 356.914062 480.695312 358.398438 L 464.359375 397.429688 L 571.988281 421.554688 L 571.503906 420.199219 C 559.027344 385.691406 517.804688 349.074219 512.839844 344.757812 L 532.667969 308.445312 C 534.972656 310.839844 538.988281 313.890625 544.625 317.535156 " fill-opacity="1" fill-rule="nonzero"/><path fill="#d57961" d="M 541.964844 141.851562 C 539.761719 153.722656 525.660156 161.78125 521.433594 161.183594 C 521.433594 161.183594 511.78125 175.875 505.128906 181.300781 L 516 190.769531 C 516 190.769531 490.429688 231.816406 467.484375 227.996094 L 463.464844 246.914062 C 463.464844 246.914062 438.09375 252.753906 430.230469 237.851562 L 436.890625 220.144531 C 436.890625 220.144531 414.136719 208.277344 425.003906 169.023438 L 434.070312 167.015625 C 434.070312 167.015625 431.453125 161.578125 431.039062 149.707031 C 431.039062 149.707031 430.988281 148.6875 430.972656 146.898438 C 420.632812 141.648438 421.652344 120.734375 425.816406 118.304688 C 428.730469 116.605469 431.199219 119.15625 432.703125 121.445312 C 434.046875 112.277344 436.386719 102.078125 440.441406 92.820312 L 440.441406 93.753906 C 440.441406 93.753906 448.558594 83.886719 458.617188 78.855469 C 468.695312 73.824219 515.601562 81.675781 522.050781 103.210938 C 528.480469 124.746094 525.929688 138.84375 525.929688 138.84375 L 530.703125 135.421875 C 530.703125 135.421875 544.1875 129.984375 541.964844 141.851562 " fill-opacity="1" fill-rule="nonzero"/><path fill="#ffffff" d="M 463.859375 138.03125 C 463.859375 138.03125 460.441406 120.71875 447.359375 122.53125 C 434.265625 124.347656 449.164062 151.242188 463.859375 138.03125 Z M 485.003906 142.054688 C 485.003906 142.054688 495.867188 126.558594 508.152344 135.210938 C 520.4375 143.863281 497.082031 162.382812 485.003906 142.054688 " fill-opacity="1" fill-rule="nonzero"/><path fill="#100f0d" d="M 516.84375 99.84375 C 518.648438 100.613281 520.003906 102.753906 519.695312 104.332031 C 519.417969 105.765625 517.816406 106.101562 516.53125 106.125 C 515.027344 106.148438 514.078125 105.753906 513.585938 104.910156 C 512.933594 103.800781 513.066406 102.035156 513.554688 100.144531 C 514.597656 99.472656 515.71875 99.363281 516.84375 99.84375 Z M 466.480469 65.78125 C 453.863281 70.355469 445.707031 80.792969 440.441406 92.820312 L 438.296875 96.46875 C 438.296875 96.46875 447.449219 85.253906 456.941406 79.765625 C 457.203125 79.988281 457.480469 80.222656 457.761719 80.457031 C 456.824219 83.207031 456.039062 87.074219 457.527344 90.042969 C 458.613281 92.199219 460.699219 93.53125 463.742188 93.992188 L 463.984375 92.433594 C 461.476562 92.050781 459.777344 91.011719 458.9375 89.335938 C 457.792969 87.058594 458.316406 83.964844 459.074219 81.546875 C 463.144531 84.910156 468.617188 89.207031 473.328125 92.125 C 472.625 93.992188 472.246094 96.109375 472.800781 98.128906 C 473.53125 100.796875 475.75 102.773438 479.378906 104.007812 L 479.882812 102.507812 C 476.777344 101.460938 474.910156 99.847656 474.320312 97.710938 C 473.894531 96.167969 474.171875 94.492188 474.714844 92.957031 C 475.890625 93.640625 477 94.207031 478.003906 94.625 C 478.421875 96.515625 479.570312 99.964844 482.542969 102.144531 C 484.28125 103.410156 486.363281 104.050781 488.765625 104.050781 C 489.863281 104.050781 491.027344 103.914062 492.257812 103.648438 L 491.925781 102.101562 C 488.484375 102.855469 485.628906 102.441406 483.488281 100.878906 C 481.363281 99.332031 480.308594 96.941406 479.796875 95.222656 C 486.597656 96.878906 504.296875 95.148438 514.226562 93.972656 C 513.542969 95.382812 512.71875 97.257812 512.167969 99.195312 C 511.625 99.628906 511.078125 100.207031 510.546875 100.964844 C 509.089844 103.027344 508.683594 105.101562 509.339844 107.121094 C 511.042969 112.363281 519.414062 115.25 519.769531 115.367188 L 520.277344 113.878906 C 520.195312 113.847656 512.296875 111.117188 510.839844 106.636719 C 510.371094 105.199219 510.617188 103.753906 511.597656 102.226562 C 511.503906 103.539062 511.65625 104.75 512.222656 105.710938 C 513.023438 107.074219 514.460938 107.730469 516.5625 107.699219 C 520.261719 107.628906 521.070312 105.535156 521.242188 104.640625 C 521.699219 102.320312 519.96875 99.460938 517.460938 98.394531 C 516.8125 98.113281 515.59375 97.761719 514.175781 98.144531 C 514.742188 96.558594 515.453125 95.027344 516.0625 93.84375 C 518.890625 96.617188 521.007812 99.730469 522.050781 103.210938 C 528.480469 124.746094 525.929688 138.84375 525.929688 138.84375 L 530.703125 135.421875 C 549.425781 94.550781 505.332031 51.6875 466.480469 65.78125 " fill-opacity="1" fill-rule="nonzero"/><path fill="#100f0d" d="M 478.664062 182.503906 L 478.1875 181 C 468.179688 184.191406 461.519531 181.074219 461.453125 181.042969 L 460.769531 182.460938 C 460.960938 182.558594 464.078125 184.03125 469.257812 184.03125 C 471.894531 184.03125 475.070312 183.648438 478.664062 182.503906 Z M 336.3125 268.542969 L 325.171875 266.03125 L 324.824219 267.570312 L 335.96875 270.082031 Z M 608.195312 321.957031 L 606.617188 321.957031 L 606.617188 331.515625 L 608.195312 331.515625 Z M 503.476562 183.292969 L 500.5625 190.472656 L 502.027344 191.0625 L 506.816406 179.257812 L 504.695312 180.644531 C 504.4375 180.816406 478.378906 197.808594 467.039062 195.492188 C 454.78125 192.984375 444.214844 183.542969 434.753906 166.625 L 432.992188 163.472656 L 433.910156 174.859375 L 435.480469 174.730469 L 435.136719 170.433594 C 444.394531 185.871094 454.75 194.585938 466.726562 197.039062 C 467.539062 197.203125 468.414062 197.285156 469.34375 197.277344 C 480.011719 197.277344 497.453125 187.035156 503.476562 183.292969 Z M 454.097656 147.386719 C 453.765625 147.386719 453.492188 147.65625 453.492188 147.996094 C 453.492188 148.328125 453.765625 148.59375 454.097656 148.59375 C 454.429688 148.59375 454.699219 148.328125 454.699219 147.996094 C 454.699219 147.65625 454.429688 147.386719 454.097656 147.386719 Z M 446.851562 147.386719 C 446.402344 147.386719 446.046875 147.75 446.046875 148.195312 C 446.046875 148.636719 446.402344 149 446.851562 149 C 447.296875 149 447.652344 148.636719 447.652344 148.195312 C 447.652344 147.75 447.296875 147.386719 446.851562 147.386719 Z M 441.382812 139.761719 C 440.859375 139.761719 440.441406 140.1875 440.441406 140.703125 C 440.441406 141.222656 440.859375 141.648438 441.382812 141.648438 C 441.898438 141.648438 442.320312 141.222656 442.320312 140.703125 C 442.320312 140.1875 441.898438 139.761719 441.382812 139.761719 Z M 503.457031 155.363281 C 503.046875 155.363281 502.71875 155.695312 502.71875 156.105469 C 502.71875 156.515625 503.046875 156.847656 503.457031 156.847656 C 503.863281 156.847656 504.199219 156.515625 504.199219 156.105469 C 504.199219 155.695312 503.863281 155.363281 503.457031 155.363281 Z M 496.804688 159.667969 C 496.289062 159.667969 495.867188 160.085938 495.867188 160.597656 C 495.867188 161.113281 496.289062 161.527344 496.804688 161.527344 C 497.316406 161.527344 497.734375 161.113281 497.734375 160.597656 C 497.734375 160.085938 497.316406 159.667969 496.804688 159.667969 Z M 490.261719 154.332031 C 489.691406 154.332031 489.226562 154.796875 489.226562 155.363281 C 489.226562 155.933594 489.691406 156.398438 490.261719 156.398438 C 490.828125 156.398438 491.292969 155.933594 491.292969 155.363281 C 491.292969 154.796875 490.828125 154.332031 490.261719 154.332031 Z M 465.4375 117.167969 C 465.4375 117.167969 465.339844 111.125 463.226562 109.722656 C 461.113281 108.3125 449.433594 101.664062 447.925781 104.386719 C 446.414062 107.105469 447.925781 111.832031 449.9375 112.136719 C 451.953125 112.4375 465.886719 121.035156 465.4375 117.167969 Z M 494.773438 115.425781 C 493.640625 115.578125 492.566406 115.996094 491.636719 116.660156 C 489.425781 118.257812 485.804688 121.261719 488.476562 122.230469 C 492.183594 123.570312 507.480469 123.171875 509.359375 120.824219 C 511.195312 118.527344 518.425781 112.191406 494.773438 115.425781 Z M 432.105469 133.585938 C 431.964844 126.914062 427.378906 122.058594 427.1875 121.851562 L 426.050781 122.945312 C 426.09375 122.992188 430.398438 127.554688 430.527344 133.617188 Z M 539.035156 140.5625 L 539.144531 138.988281 C 539.046875 138.972656 529.558594 138.421875 525.222656 147.78125 L 526.652344 148.445312 C 530.527344 140.089844 538.683594 140.527344 539.035156 140.5625 Z M 489.96875 174.011719 C 489.4375 173.980469 487.398438 172.59375 485.511719 170.972656 L 484.492188 172.175781 C 484.898438 172.527344 485.527344 173.042969 486.210938 173.5625 C 481.1875 175.230469 465.0625 179.429688 452.046875 170 L 451.121094 171.277344 C 457.753906 176.085938 465.140625 177.515625 471.578125 177.515625 C 479.457031 177.515625 485.890625 175.382812 487.800781 174.675781 C 488.636719 175.199219 489.425781 175.585938 489.96875 175.585938 Z M 475.859375 163.910156 L 469.417969 160.289062 L 468.640625 161.664062 L 475.085938 165.285156 Z M 462.738281 161.785156 C 461.453125 160.964844 460.800781 160.023438 460.75 158.902344 C 460.632812 156.179688 464.125 152.90625 465.480469 151.871094 L 464.527344 150.613281 C 464.296875 150.785156 459 154.871094 459.179688 158.972656 C 459.246094 160.628906 460.164062 162.019531 461.894531 163.117188 Z M 452.519531 121.664062 C 442.320312 119.914062 440.441406 118.304688 440.441406 118.304688 C 440.441406 118.304688 441.480469 125.402344 442.976562 125.339844 C 442.976562 125.339844 448.898438 122.769531 454.269531 124.476562 C 456.394531 125.15625 458.335938 127.425781 459.910156 129.914062 C 459.84375 129.914062 449.734375 129.738281 449.65625 140.003906 C 449.65625 140.003906 456.714844 145.679688 463.859375 138.03125 C 463.859375 138.03125 462.722656 123.40625 452.519531 121.664062 Z M 516.136719 134.140625 C 516.136719 134.140625 514.929688 140.582031 512.242188 140.710938 C 512.242188 140.710938 512.015625 140.089844 511.496094 139.246094 L 512.242188 140.710938 C 508.890625 154.769531 496.65625 151.046875 496.65625 151.046875 C 497.082031 136.4375 507.886719 137.214844 510.222656 137.550781 C 508.464844 135.628906 505.429688 133.722656 500.570312 134.675781 C 491.710938 136.417969 485.003906 142.054688 485.003906 142.054688 C 485.003906 142.054688 489.296875 133.683594 497.617188 132.035156 C 505.933594 130.382812 509.027344 135.480469 516.136719 134.140625 " fill-opacity="1" fill-rule="nonzero"/><path fill="#100f0d" d="M 422.167969 177.503906 L 411.363281 175.988281 L 411.140625 177.546875 L 421.953125 179.066406 Z M 428.25 214.269531 L 418.113281 221.3125 L 419.015625 222.609375 L 429.148438 215.5625 Z M 522.0625 210.769531 L 522.832031 209.398438 L 509.296875 201.765625 C 513.605469 196.136719 516.339844 191.722656 516.671875 191.179688 L 515.324219 190.355469 C 515.070312 190.773438 489.707031 231.691406 467.644531 227.226562 L 466.867188 227.066406 L 457.25 274.46875 L 458.796875 274.78125 L 468.105469 228.90625 C 471.53125 229.457031 474.984375 229.019531 478.398438 227.902344 L 481.378906 238.273438 L 482.894531 237.84375 L 479.882812 227.367188 C 483.683594 225.902344 487.410156 223.628906 490.945312 220.902344 L 498.253906 231.074219 L 499.535156 230.152344 L 492.183594 219.921875 C 495.097656 217.550781 497.882812 214.914062 500.445312 212.210938 L 509.390625 221.695312 L 510.535156 220.613281 L 501.519531 211.058594 C 504.03125 208.332031 506.328125 205.578125 508.324219 203.03125 Z M 437.25 219.441406 L 437.875 219.761719 L 421.246094 264.425781 L 419.765625 263.875 L 435.910156 220.527344 C 428.992188 216.789062 425.121094 210.875 423.082031 204.371094 L 412.183594 206.804688 L 411.835938 205.269531 L 422.628906 202.855469 C 421.632812 199.113281 421.214844 195.21875 421.140625 191.453125 L 409.816406 190.132812 L 409.996094 188.570312 L 421.121094 189.863281 C 421.183594 178.628906 424.1875 168.972656 424.25 168.777344 L 425.753906 169.257812 C 425.628906 169.636719 413.839844 207.550781 437.25 219.441406 " fill-opacity="1" fill-rule="nonzero"/><path fill="#3e5bb2" d="M 436.089844 172.125 C 436.089844 176.035156 432.917969 179.207031 429 179.207031 C 425.089844 179.207031 421.914062 176.035156 421.914062 172.125 C 421.914062 168.207031 425.089844 165.039062 429 165.039062 C 432.917969 165.039062 436.089844 168.207031 436.089844 172.125 Z M 441.855469 186.90625 C 441.855469 190.824219 438.691406 193.996094 434.773438 193.996094 C 430.859375 193.996094 427.6875 190.824219 427.6875 186.90625 C 427.6875 182.996094 430.859375 179.824219 434.773438 179.824219 C 438.691406 179.824219 441.855469 182.996094 441.855469 186.90625 Z M 450.148438 199.820312 C 450.148438 203.730469 446.976562 206.902344 443.0625 206.902344 C 439.152344 206.902344 435.980469 203.730469 435.980469 199.820312 C 435.980469 195.902344 439.152344 192.738281 443.0625 192.738281 C 446.976562 192.738281 450.148438 195.902344 450.148438 199.820312 Z M 510.042969 193.21875 C 510.042969 197.136719 506.871094 200.308594 502.960938 200.308594 C 499.042969 200.308594 495.867188 197.136719 495.867188 193.21875 C 495.867188 189.308594 499.042969 186.136719 502.960938 186.136719 C 506.871094 186.136719 510.042969 189.308594 510.042969 193.21875 Z M 497.050781 203.460938 C 497.050781 207.371094 493.878906 210.542969 489.96875 210.542969 C 486.054688 210.542969 482.882812 207.371094 482.882812 203.460938 C 482.882812 199.542969 486.054688 196.371094 489.96875 196.371094 C 493.878906 196.371094 497.050781 199.542969 497.050781 203.460938 Z M 482.136719 208.480469 C 482.136719 212.390625 478.964844 215.5625 475.054688 215.5625 C 471.140625 215.5625 467.964844 212.390625 467.964844 208.480469 C 467.964844 204.570312 471.140625 201.398438 475.054688 201.398438 C 478.964844 201.398438 482.136719 204.570312 482.136719 208.480469 Z M 458.308594 202.105469 C 454.398438 202.105469 451.226562 205.277344 451.226562 209.1875 C 451.226562 213.105469 454.398438 216.277344 458.308594 216.277344 C 462.222656 216.277344 465.394531 213.105469 465.394531 209.1875 C 465.394531 205.277344 462.222656 202.105469 458.308594 202.105469 Z M 532.75 134.761719 L 529.535156 136.257812 C 535.539062 123.976562 534.757812 106.421875 527.902344 92.902344 C 520.417969 78.144531 506.949219 68.347656 489.980469 65.304688 C 453.492188 58.765625 437.933594 99.265625 437.796875 99.644531 L 437.21875 95.832031 C 437.359375 95.421875 451.433594 55.199219 490.539062 62.203125 C 508.503906 65.421875 522.769531 75.816406 530.710938 91.472656 C 538.121094 106.074219 539.28125 121.417969 532.75 134.761719 " fill-opacity="1" fill-rule="nonzero"/><path fill="#100f0d" d="M 693.359375 520.269531 L 535.324219 561.210938 L 411.53125 593.277344 L 373.003906 603.253906 L 325.226562 615.632812 L 49.941406 686.957031 L 49.546875 685.449219 L 323.945312 614.339844 L 371.933594 601.917969 L 410.808594 591.84375 L 535.324219 559.585938 L 692.964844 518.734375 L 693.359375 520.269531 " fill-opacity="1" fill-rule="nonzero"/><path fill="#100f0d" d="M 311.457031 618.6875 C 311.015625 617.863281 267.34375 535.9375 286.550781 477.257812 C 305.820312 418.402344 406.476562 409.242188 407.496094 409.15625 L 407.625 410.726562 C 406.621094 410.8125 306.996094 419.882812 288.054688 477.746094 C 269.058594 535.78125 312.40625 617.125 312.851562 617.9375 L 311.457031 618.6875 " fill-opacity="1" fill-rule="nonzero"/><path fill="#100f0d" d="M 478.421875 282.671875 C 473.710938 271.507812 465.707031 271.457031 460.683594 272.792969 C 463.378906 270.828125 467.121094 269.0625 470.820312 270.519531 C 478.871094 273.691406 487.332031 291.523438 485.820312 354.265625 C 484.238281 322.714844 481.835938 290.765625 478.421875 282.671875 Z M 477.898438 355.625 C 477.898438 360.28125 474.082031 364.082031 469.429688 364.082031 C 469.015625 364.082031 468.609375 364.050781 468.214844 363.984375 C 464.144531 363.40625 458.15625 361.113281 458.15625 356.875 L 459.234375 347.476562 C 459.234375 342.835938 464.339844 336.480469 468.980469 336.480469 C 470.585938 336.480469 472.550781 339.171875 473.847656 339.972656 C 474.414062 340.304688 474.929688 340.714844 475.40625 341.191406 C 476.949219 342.730469 477.898438 344.84375 477.898438 347.164062 Z M 452.105469 272.628906 C 438.917969 266.285156 427.503906 262.867188 417.648438 261.863281 C 433.65625 261.777344 446.28125 268.710938 452.105469 272.628906 Z M 488.359375 424.632812 C 488.359375 424.632812 487.855469 401.238281 486.691406 373.308594 C 489.8125 309.34375 484.683594 274.285156 471.394531 269.054688 C 464.765625 266.445312 458.457031 272.238281 456.3125 274.53125 C 456.203125 274.585938 456.148438 274.621094 456.148438 274.621094 L 456.660156 274.03125 C 456.402344 273.804688 433.386719 254.226562 403.503906 262.164062 C 331.035156 274.050781 368.371094 449.59375 368.371094 449.59375 L 413.5625 440.191406 C 405.605469 426.675781 406.128906 412.679688 406.140625 412.433594 L 407.964844 411.484375 C 407.949219 411.722656 407.335938 426.179688 415.480469 439.796875 L 480.972656 426.167969 C 482.058594 414.152344 480.972656 403.769531 480.972656 403.769531 L 482.425781 404.136719 C 482.519531 404.925781 483.566406 414.519531 482.65625 425.820312 L 488.359375 424.632812 " fill-opacity="1" fill-rule="nonzero"/><path fill="#ffffff" d="M 385.75 433.539062 C 385.570312 432.933594 368.117188 372.734375 370.496094 325.382812 C 372.851562 278.695312 409.71875 278.601562 411.242188 278.632812 L 411.257812 277.054688 C 411.257812 277.054688 411.246094 277.054688 411.242188 277.054688 C 410.058594 277.054688 371.328125 277.558594 368.925781 325.300781 C 366.53125 372.917969 384.054688 433.371094 384.234375 433.980469 Z M 399.609375 426.140625 L 387.332031 372.746094 L 388.867188 372.394531 L 401.148438 425.789062 L 399.609375 426.140625 " fill-opacity="1" fill-rule="nonzero"/><g clip-path="url(#a535032df4)"><path fill="#ffffff" d="M 402.597656 683.414062 C 402.597656 683.414062 390.546875 690.148438 402.597656 706.121094 C 414.648438 722.089844 451.816406 738.375 465.460938 726.839844 C 479.113281 715.3125 468.765625 679.34375 434.324219 672.738281 C 399.882812 666.117188 402.597656 683.414062 402.597656 683.414062 Z M 661.355469 550.222656 L 643.570312 595.328125 L 477.4375 641.597656 C 468.53125 646.027344 465.910156 641.070312 465.910156 641.070312 C 465.910156 641.070312 447.050781 601.933594 443.988281 597.683594 C 440.925781 593.4375 447.019531 590.742188 447.019531 590.742188 L 512.582031 572.289062 L 631.054688 542.839844 L 661.355469 550.222656 " fill-opacity="1" fill-rule="nonzero"/></g><g clip-path="url(#f59b3a46c5)"><path fill="#100f0d" d="M 464.957031 726.242188 C 464.5625 726.574219 464.132812 726.875 463.6875 727.160156 C 462.429688 722.65625 457.75 707.371094 451.171875 704.398438 C 458.742188 701.335938 466.171875 701.527344 468.574219 701.695312 C 468.90625 702.628906 469.203125 703.554688 469.441406 704.460938 C 471.820312 713.542969 470.101562 721.894531 464.957031 726.242188 Z M 448.246094 729.691406 C 443.496094 729.160156 438.332031 727.792969 433.195312 725.859375 C 435.910156 714.835938 442.203125 708.765625 448.804688 705.464844 C 448.847656 705.464844 448.890625 705.464844 448.941406 705.464844 C 454.871094 705.464844 460.398438 721.105469 462.269531 727.953125 C 458.71875 729.722656 453.949219 730.332031 448.246094 729.691406 Z M 403.226562 705.648438 C 399.042969 700.097656 397.375 695.136719 398.261719 690.878906 C 399.214844 686.285156 402.949219 684.125 402.984375 684.105469 L 403.460938 683.835938 L 403.375 683.296875 C 403.367188 683.253906 402.800781 679.34375 406.089844 676.167969 C 408.265625 674.066406 412.441406 672.023438 420.488281 672.023438 C 424.175781 672.023438 428.679688 672.453125 434.175781 673.507812 C 452.753906 677.078125 463.550781 689.234375 467.976562 700.105469 C 464.671875 699.996094 456.605469 700.183594 448.761719 703.886719 C 448.753906 703.886719 448.75 703.886719 448.738281 703.886719 L 448.738281 703.898438 C 441.589844 707.285156 434.660156 713.605469 431.722656 725.289062 C 420.148438 720.667969 408.9375 713.21875 403.226562 705.648438 Z M 470.96875 704.058594 C 467.773438 691.871094 456.300781 676.15625 434.476562 671.960938 C 419.921875 669.164062 409.996094 670.199219 404.992188 675.035156 C 401.839844 678.074219 401.699219 681.671875 401.773438 683.007812 C 400.625 683.785156 397.636719 686.179688 396.722656 690.527344 C 395.730469 695.253906 397.492188 700.660156 401.96875 706.597656 C 410.671875 718.136719 431.785156 729.433594 448.066406 731.253906 C 449.613281 731.429688 451.097656 731.515625 452.507812 731.515625 C 458.1875 731.515625 462.792969 730.132812 465.972656 727.441406 C 471.585938 722.699219 473.5 713.742188 470.96875 704.058594 Z M 628.992188 553.335938 L 618.800781 556.179688 L 616.078125 550.890625 L 625.355469 548.289062 C 625.855469 548.148438 626.496094 548.480469 626.773438 549.035156 Z M 632.558594 560.273438 L 622.375 563.125 L 619.515625 557.566406 L 629.699219 554.714844 Z M 635.953125 566.859375 L 625.761719 569.710938 L 623.082031 564.507812 L 633.273438 561.65625 Z M 639.339844 573.449219 L 629.152344 576.300781 L 626.476562 571.097656 L 636.660156 568.246094 Z M 641.988281 578.601562 C 642.273438 579.152344 642.09375 579.710938 641.59375 579.851562 L 632.316406 582.445312 L 629.863281 577.683594 L 640.046875 574.835938 Z M 617.542969 556.535156 L 611.371094 558.261719 L 608.648438 552.964844 L 614.816406 551.242188 Z M 621.113281 563.476562 L 614.945312 565.203125 L 612.085938 559.648438 L 618.253906 557.917969 Z M 624.503906 570.066406 L 618.332031 571.792969 L 615.652344 566.585938 L 621.824219 564.863281 Z M 627.894531 576.652344 L 621.722656 578.382812 L 619.042969 573.171875 L 625.214844 571.445312 Z M 631.054688 582.804688 L 624.882812 584.527344 L 622.429688 579.761719 L 628.601562 578.035156 Z M 610.109375 558.613281 L 603.648438 560.421875 L 600.925781 555.132812 L 607.386719 553.320312 Z M 613.683594 565.558594 L 607.21875 567.371094 L 604.355469 561.808594 L 610.824219 560 Z M 617.070312 572.144531 L 610.609375 573.953125 L 607.929688 568.75 L 614.398438 566.9375 Z M 620.457031 578.734375 L 613.996094 580.542969 L 611.316406 575.339844 L 617.785156 573.527344 Z M 623.625 584.878906 L 617.15625 586.6875 L 614.710938 581.921875 L 621.171875 580.117188 Z M 602.382812 560.78125 L 596.425781 562.441406 L 593.703125 557.148438 L 599.660156 555.484375 Z M 605.957031 567.722656 L 600 569.382812 L 597.140625 563.828125 L 603.097656 562.160156 Z M 609.34375 574.304688 L 603.386719 575.972656 L 600.714844 570.769531 L 606.664062 569.101562 Z M 612.734375 580.898438 L 606.78125 582.5625 L 604.101562 577.359375 L 610.058594 575.691406 Z M 615.898438 587.039062 L 609.941406 588.710938 L 607.492188 583.941406 L 613.449219 582.28125 Z M 595.171875 562.792969 L 589.511719 564.382812 L 586.785156 559.085938 L 592.449219 557.503906 Z M 598.742188 569.742188 L 593.082031 571.324219 L 590.222656 565.761719 L 595.878906 564.179688 Z M 602.132812 576.324219 L 596.472656 577.90625 L 593.792969 572.703125 L 599.453125 571.121094 Z M 605.519531 582.914062 L 599.859375 584.496094 L 597.179688 579.292969 L 602.839844 577.710938 Z M 608.679688 589.058594 L 603.023438 590.644531 L 600.574219 585.882812 L 606.234375 584.300781 Z M 588.246094 564.734375 L 582.664062 566.296875 L 579.941406 561 L 585.523438 559.4375 Z M 591.820312 571.675781 L 586.238281 573.238281 L 583.378906 567.679688 L 588.960938 566.121094 Z M 595.207031 578.265625 L 589.625 579.824219 L 586.945312 574.617188 L 592.527344 573.058594 Z M 598.597656 584.855469 L 593.015625 586.417969 L 590.339844 581.207031 L 595.921875 579.644531 Z M 601.761719 591 L 596.179688 592.558594 L 593.730469 587.796875 L 599.3125 586.234375 Z M 581.410156 566.648438 L 575.019531 568.433594 L 572.296875 563.140625 L 578.679688 561.351562 Z M 584.976562 573.589844 L 578.59375 575.375 L 575.734375 569.816406 L 582.117188 568.035156 Z M 588.363281 580.179688 L 581.980469 581.964844 L 579.308594 576.761719 L 585.691406 574.976562 Z M 591.757812 586.769531 L 585.371094 588.554688 L 582.695312 583.34375 L 589.078125 581.558594 Z M 594.917969 592.914062 L 588.535156 594.703125 L 586.085938 589.933594 L 592.464844 588.148438 Z M 573.765625 568.785156 L 567.457031 570.554688 L 564.734375 565.257812 L 571.042969 563.496094 Z M 577.332031 575.726562 L 571.027344 577.496094 L 568.171875 571.933594 L 574.472656 570.171875 Z M 580.71875 582.316406 L 574.417969 584.085938 L 571.742188 578.878906 L 578.046875 577.113281 Z M 584.113281 588.90625 L 577.8125 590.675781 L 575.132812 585.464844 L 581.433594 583.703125 Z M 587.273438 595.050781 L 580.972656 596.820312 L 578.519531 592.054688 L 584.820312 590.292969 Z M 566.195312 570.90625 L 516.867188 584.710938 L 514.140625 579.417969 L 563.476562 565.609375 Z M 569.765625 577.84375 L 563.464844 579.613281 L 560.605469 574.050781 L 566.90625 572.289062 Z M 573.15625 584.433594 L 566.851562 586.195312 L 564.179688 580.992188 L 570.480469 579.230469 Z M 576.546875 591.023438 L 570.246094 592.792969 L 567.566406 587.582031 L 573.867188 585.820312 Z M 579.707031 597.171875 L 573.40625 598.933594 L 570.957031 594.171875 L 577.257812 592.410156 Z M 562.203125 579.964844 L 556.171875 581.652344 L 553.304688 576.097656 L 559.34375 574.410156 Z M 565.589844 586.554688 L 559.558594 588.242188 L 556.878906 583.039062 L 562.917969 581.34375 Z M 568.984375 593.144531 L 562.945312 594.832031 L 560.265625 589.621094 L 566.304688 587.933594 Z M 572.144531 599.289062 L 566.105469 600.976562 L 563.660156 596.214844 L 569.691406 594.523438 Z M 554.90625 582.007812 L 549.199219 583.605469 L 546.332031 578.050781 L 552.050781 576.449219 Z M 558.296875 588.597656 L 552.585938 590.195312 L 549.90625 584.988281 L 555.617188 583.386719 Z M 561.683594 595.183594 L 555.972656 596.78125 L 553.292969 591.574219 L 559.011719 589.976562 Z M 564.851562 601.328125 L 559.132812 602.929688 L 556.6875 598.167969 L 562.398438 596.566406 Z M 547.933594 583.953125 L 542.21875 585.554688 L 539.359375 580 L 545.078125 578.398438 Z M 551.324219 590.542969 L 545.613281 592.144531 L 542.933594 586.941406 L 548.644531 585.339844 Z M 554.710938 597.132812 L 549 598.734375 L 546.320312 593.523438 L 552.039062 591.929688 Z M 557.878906 603.28125 L 552.160156 604.882812 L 549.707031 600.113281 L 555.425781 598.519531 Z M 540.957031 585.90625 L 535.003906 587.574219 L 532.140625 582.019531 L 538.097656 580.351562 Z M 544.347656 592.496094 L 538.394531 594.164062 L 535.714844 588.960938 L 541.667969 587.292969 Z M 547.738281 599.085938 L 541.78125 600.753906 L 539.105469 595.550781 L 545.058594 593.882812 Z M 550.898438 605.234375 L 544.945312 606.902344 L 542.496094 602.136719 L 548.445312 600.472656 Z M 533.742188 587.933594 L 528.246094 589.46875 L 525.382812 583.910156 L 530.882812 582.371094 Z M 537.128906 594.515625 L 531.636719 596.054688 L 528.957031 590.851562 L 534.449219 589.3125 Z M 540.523438 601.105469 L 535.023438 602.644531 L 532.34375 597.4375 L 537.84375 595.902344 Z M 543.683594 607.253906 L 538.183594 608.792969 L 535.738281 604.03125 L 541.234375 602.484375 Z M 526.984375 589.824219 L 520.4375 591.652344 L 517.578125 586.097656 L 524.125 584.261719 Z M 530.371094 596.414062 L 523.824219 598.242188 L 521.148438 593.039062 L 527.691406 591.203125 Z M 533.761719 602.996094 L 527.21875 604.832031 L 524.539062 599.621094 L 531.085938 597.792969 Z M 536.925781 609.144531 L 530.378906 610.980469 L 527.925781 606.210938 L 534.476562 604.382812 Z M 515.605469 585.0625 L 509.25 586.84375 L 506.519531 581.554688 L 512.882812 579.773438 Z M 519.179688 592.011719 L 512.820312 593.789062 L 509.957031 588.230469 L 516.316406 586.449219 Z M 522.566406 598.59375 L 516.210938 600.375 L 513.53125 595.167969 L 519.886719 593.390625 Z M 525.957031 605.183594 L 519.597656 606.964844 L 516.917969 601.753906 L 523.277344 599.980469 Z M 529.121094 611.328125 L 522.757812 613.109375 L 520.3125 608.34375 L 526.667969 606.5625 Z M 507.984375 587.199219 L 501.523438 589.003906 L 498.796875 583.714844 L 505.261719 581.902344 Z M 511.558594 594.140625 L 505.089844 595.953125 L 502.230469 590.390625 L 508.695312 588.578125 Z M 514.945312 600.730469 L 508.484375 602.535156 L 505.804688 597.332031 L 512.265625 595.519531 Z M 518.335938 607.3125 L 511.871094 609.125 L 509.191406 603.921875 L 515.65625 602.109375 Z M 521.496094 613.460938 L 515.03125 615.269531 L 512.582031 610.503906 L 519.050781 608.699219 Z M 500.261719 589.363281 L 494.441406 590.988281 L 491.71875 585.699219 L 497.539062 584.066406 Z M 503.828125 596.304688 L 498.011719 597.929688 L 495.148438 592.375 L 500.96875 590.742188 Z M 507.222656 602.886719 L 501.402344 604.519531 L 498.722656 599.3125 L 504.542969 597.683594 Z M 510.609375 609.480469 L 504.789062 611.109375 L 502.117188 605.898438 L 507.929688 604.273438 Z M 513.769531 615.621094 L 507.957031 617.253906 L 505.503906 612.492188 L 511.320312 610.863281 Z M 493.175781 591.34375 L 488.433594 592.667969 L 485.703125 587.371094 L 490.453125 586.046875 Z M 496.75 598.285156 L 492 599.617188 L 489.140625 594.054688 L 493.890625 592.726562 Z M 500.136719 604.871094 L 495.394531 606.199219 L 492.714844 600.996094 L 497.457031 599.664062 Z M 503.53125 611.460938 L 498.78125 612.789062 L 496.101562 607.585938 L 500.851562 606.253906 Z M 506.691406 617.605469 L 501.941406 618.933594 L 499.492188 614.167969 L 504.242188 612.84375 Z M 487.171875 593.019531 L 481.988281 594.472656 L 479.265625 589.175781 L 484.449219 587.730469 Z M 490.742188 599.96875 L 485.5625 601.414062 L 482.703125 595.851562 L 487.878906 594.40625 Z M 494.132812 606.550781 L 488.949219 608.003906 L 486.277344 602.792969 L 491.453125 601.347656 Z M 497.519531 613.140625 L 492.339844 614.59375 L 489.664062 609.382812 L 494.839844 607.9375 Z M 500.679688 619.285156 L 495.503906 620.738281 L 493.054688 615.972656 L 498.234375 614.527344 Z M 480.734375 594.824219 L 475.128906 596.394531 L 472.40625 591.097656 L 478.003906 589.527344 Z M 484.304688 601.765625 L 478.699219 603.335938 L 475.835938 597.78125 L 481.441406 596.210938 Z M 487.695312 608.355469 L 482.082031 609.925781 L 479.410156 604.714844 L 485.015625 603.152344 Z M 491.082031 614.945312 L 485.476562 616.515625 L 482.796875 611.304688 L 488.402344 609.742188 Z M 494.242188 621.089844 L 488.636719 622.660156 L 486.183594 617.894531 L 491.789062 616.324219 Z M 473.863281 596.746094 L 467.722656 598.464844 L 464.992188 593.175781 L 471.140625 591.449219 Z M 477.4375 603.691406 L 471.289062 605.410156 L 468.429688 599.851562 L 474.578125 598.132812 Z M 480.824219 610.277344 L 474.683594 611.996094 L 472.003906 606.789062 L 478.144531 605.074219 Z M 484.214844 616.867188 L 478.070312 618.585938 L 475.390625 613.378906 L 481.535156 611.65625 Z M 487.378906 623.011719 L 481.230469 624.730469 L 478.78125 619.96875 L 484.929688 618.246094 Z M 466.460938 598.820312 L 460.207031 600.570312 L 457.484375 595.273438 L 463.738281 593.523438 Z M 470.03125 605.761719 L 463.78125 607.511719 L 460.921875 601.949219 L 467.167969 600.203125 Z M 473.421875 612.347656 L 467.167969 614.09375 L 464.488281 608.898438 L 470.742188 607.140625 Z M 476.808594 618.941406 L 470.5625 620.683594 L 467.882812 615.480469 L 474.128906 613.730469 Z M 479.96875 625.082031 L 473.722656 626.832031 L 471.269531 622.070312 L 477.523438 620.320312 Z M 458.949219 600.921875 L 452.980469 602.589844 L 450.777344 598.292969 C 450.492188 597.742188 450.664062 597.183594 451.171875 597.042969 L 456.226562 595.632812 Z M 462.519531 607.863281 L 456.554688 609.53125 L 453.695312 603.96875 L 459.660156 602.308594 Z M 465.910156 614.453125 L 459.941406 616.121094 L 457.269531 610.917969 L 463.230469 609.25 Z M 469.300781 621.042969 L 463.335938 622.710938 L 460.65625 617.507812 L 466.621094 615.832031 Z M 472.460938 627.1875 L 467.410156 628.605469 C 466.902344 628.738281 466.269531 628.40625 465.984375 627.859375 L 464.046875 624.089844 L 470.007812 622.421875 Z M 624.648438 546.910156 L 450.457031 595.664062 C 449.261719 595.996094 448.835938 597.335938 449.511719 598.644531 L 464.722656 628.214844 C 465.402344 629.527344 466.921875 630.316406 468.117188 629.984375 L 642.300781 581.234375 C 643.496094 580.898438 643.921875 579.558594 643.25 578.246094 L 628.035156 548.679688 C 627.363281 547.367188 625.84375 546.574219 624.648438 546.910156 Z M 646.652344 587.667969 C 647.09375 588.523438 646.816406 589.398438 646.035156 589.621094 L 637.269531 592.070312 L 634.832031 587.335938 L 643.597656 584.886719 C 644.378906 584.664062 645.371094 585.1875 645.8125 586.035156 Z M 636.007812 592.421875 L 629.835938 594.152344 L 627.402344 589.417969 L 633.574219 587.6875 Z M 628.578125 594.503906 L 622.109375 596.316406 L 619.675781 591.578125 L 626.136719 589.769531 Z M 620.847656 596.667969 L 614.894531 598.335938 L 612.457031 593.597656 L 618.414062 591.929688 Z M 613.632812 598.6875 L 607.972656 600.273438 L 605.539062 595.53125 L 611.199219 593.949219 Z M 606.714844 600.625 L 601.132812 602.191406 L 598.695312 597.453125 L 604.277344 595.890625 Z M 599.871094 602.542969 L 593.488281 604.328125 L 591.050781 599.589844 L 597.433594 597.804688 Z M 592.226562 604.679688 L 585.925781 606.445312 L 583.484375 601.703125 L 589.785156 599.941406 Z M 584.660156 606.796875 L 578.359375 608.558594 L 575.921875 603.828125 L 582.222656 602.0625 Z M 577.097656 608.914062 L 571.058594 610.601562 L 568.625 605.867188 L 574.65625 604.179688 Z M 569.796875 610.953125 L 564.085938 612.554688 L 561.652344 607.820312 L 567.363281 606.21875 Z M 562.828125 612.90625 L 557.113281 614.507812 L 554.675781 609.773438 L 560.390625 608.171875 Z M 555.851562 614.859375 L 549.894531 616.527344 L 547.460938 611.792969 L 553.417969 610.121094 Z M 548.636719 616.878906 L 543.136719 618.417969 L 540.695312 613.683594 L 546.199219 612.144531 Z M 541.875 618.769531 L 535.332031 620.605469 L 532.890625 615.867188 L 539.441406 614.035156 Z M 534.066406 620.957031 L 527.710938 622.734375 L 525.269531 618 L 531.636719 616.21875 Z M 526.449219 623.085938 L 519.984375 624.898438 L 517.550781 620.160156 L 524.015625 618.351562 Z M 518.722656 625.246094 L 512.902344 626.878906 L 510.46875 622.144531 L 516.289062 620.519531 Z M 511.644531 627.230469 L 506.894531 628.5625 L 504.457031 623.824219 L 509.207031 622.496094 Z M 505.632812 628.914062 L 500.457031 630.367188 L 498.019531 625.628906 L 503.199219 624.175781 Z M 499.195312 630.71875 L 493.589844 632.289062 L 491.148438 627.550781 L 496.761719 625.980469 Z M 492.328125 632.636719 L 486.183594 634.355469 L 483.75 629.621094 L 489.894531 627.902344 Z M 484.921875 634.714844 L 478.675781 636.457031 L 476.238281 631.71875 L 482.488281 629.976562 Z M 477.414062 636.8125 L 472.867188 638.082031 C 472.085938 638.304688 471.09375 637.785156 470.648438 636.929688 L 469.8125 635.296875 C 469.375 634.441406 469.652344 633.566406 470.425781 633.347656 L 474.972656 632.078125 Z M 642.886719 583.5 L 469.71875 631.96875 C 468.242188 632.378906 467.71875 634.035156 468.546875 635.648438 L 469.390625 637.28125 C 470.222656 638.902344 472.097656 639.878906 473.574219 639.46875 L 646.742188 591 C 648.222656 590.585938 648.746094 588.929688 647.914062 587.316406 L 647.078125 585.683594 C 646.238281 584.066406 644.367188 583.085938 642.886719 583.5 Z M 652.144531 587.484375 C 653.285156 589.695312 652.570312 591.953125 650.558594 592.515625 L 472.089844 642.46875 C 470.070312 643.027344 467.507812 641.691406 466.375 639.480469 L 444.53125 597.023438 C 443.390625 594.820312 444.105469 592.558594 446.125 591.996094 L 624.59375 542.046875 C 626.605469 541.484375 629.175781 542.820312 630.308594 545.03125 Z M 623.878906 540.660156 L 445.410156 590.613281 C 442.699219 591.371094 441.738281 594.40625 443.265625 597.378906 L 465.109375 639.835938 C 466.640625 642.804688 470.089844 644.605469 472.800781 643.847656 L 651.273438 593.902344 C 653.976562 593.136719 654.941406 590.105469 653.410156 587.132812 L 631.570312 544.675781 C 630.042969 541.707031 626.589844 539.910156 623.878906 540.660156 " fill-opacity="1" fill-rule="nonzero"/></g><path fill="#edaa98" d="M 379.675781 669.375 C 390.515625 696.945312 385.546875 683.132812 402.863281 700.640625 C 420.171875 718.148438 435.679688 722.910156 438.695312 722.910156 C 441.722656 722.910156 437.21875 716.605469 437.21875 716.605469 C 437.21875 716.605469 443.527344 726.9375 448.363281 726.9375 C 453.191406 726.9375 450.777344 720.699219 450.777344 720.699219 C 450.777344 720.699219 450.777344 722.511719 455.808594 722.105469 C 460.84375 721.703125 450.980469 697.753906 450.375 694.335938 C 449.773438 690.910156 443.007812 679.898438 443.007812 679.898438 L 453.191406 682.527344 C 453.191406 682.527344 464.328125 710.570312 468.085938 708.417969 C 471.851562 706.277344 468.757812 677.421875 461.242188 671.253906 C 453.726562 665.082031 410.511719 650.054688 410.511719 650.054688 C 410.511719 650.054688 368.839844 641.800781 379.675781 669.375 Z M 473.839844 339.933594 C 472.546875 339.132812 471.03125 338.679688 469.421875 338.679688 C 464.789062 338.679688 460.972656 342.472656 460.972656 347.128906 L 460.972656 355.59375 C 460.972656 359.832031 464.136719 363.363281 468.210938 363.945312 L 469.046875 412.476562 C 433.453125 442.835938 407.949219 411.902344 407.949219 411.902344 L 418.726562 405.90625 L 418.046875 391.09375 C 402.167969 395.839844 392.644531 393.890625 381.535156 369.859375 C 370.433594 345.835938 379.945312 337.445312 379.945312 337.445312 C 379.945312 337.445312 372.691406 301.628906 405.789062 291.207031 C 414.5 288.460938 422.101562 289.136719 428.59375 291.601562 C 434.132812 287.40625 448.132812 280.042969 448.132812 280.042969 C 448.132812 280.042969 436.246094 288.429688 430.058594 292.167969 C 447.363281 299.578125 456.351562 319.535156 456.351562 319.535156 C 456.351562 319.535156 463.84375 306.621094 476.539062 316.132812 C 484.546875 322.136719 479.015625 332.859375 473.839844 339.933594 " fill-opacity="1" fill-rule="nonzero"/><path fill="#100f0d" d="M 443.527344 679.300781 L 440.691406 676.832031 L 439.65625 678.019531 L 442.492188 680.492188 Z M 439.070312 717.972656 L 422.554688 695.34375 L 421.28125 696.273438 L 437.796875 718.902344 Z M 450.039062 720.976562 C 449.96875 720.792969 443.050781 702.519531 441.339844 698.964844 C 439.664062 695.472656 430.535156 684.617188 430.441406 684.511719 L 431.648438 683.488281 C 432.03125 683.945312 441 694.613281 442.761719 698.28125 C 444.5 701.898438 451.230469 719.664062 451.515625 720.421875 L 450.039062 720.976562 " fill-opacity="1" fill-rule="nonzero"/><path fill="#3e5bb2" d="M 482.457031 404.414062 C 482.863281 408.207031 486.226562 444.179688 470.339844 458.472656 C 466.128906 462.261719 460.921875 464.164062 454.800781 464.164062 C 452.335938 464.164062 449.730469 463.855469 446.980469 463.242188 C 406.867188 454.269531 406.078125 417.25 406.132812 412.875 C 398.925781 416.496094 344.730469 443.871094 342.460938 448.394531 C 340.046875 453.214844 308.234375 595.707031 310.652344 600.140625 C 311.296875 601.335938 316.582031 606.871094 323.945312 614.339844 C 324.355469 614.765625 324.78125 615.199219 325.226562 615.632812 C 345.503906 636.113281 379.675781 669.378906 379.675781 669.378906 L 410.507812 650.046875 L 373.003906 603.253906 L 371.933594 601.917969 L 353.734375 579.199219 L 376.15625 524.464844 L 410.808594 591.84375 L 535.324219 559.585938 L 535.324219 416.589844 Z M 418.726562 405.90625 L 418.363281 400.480469 L 468.460938 378.339844 L 468.855469 401.28125 L 481.003906 404.082031 C 481.335938 407.640625 484.320312 443.78125 469.289062 457.296875 C 463.78125 462.25 456.386719 463.734375 447.328125 461.703125 C 408.40625 452.992188 407.882812 416.160156 407.949219 411.902344 L 418.726562 405.90625 " fill-opacity="1" fill-rule="nonzero"/><path fill="#ffffff" d="M 409.171875 368.121094 C 394.8125 373.222656 391.316406 363.964844 391.316406 363.964844 C 401.921875 364.773438 431.179688 342.632812 431.179688 342.632812 C 431.179688 342.632812 423.53125 363.023438 409.171875 368.121094 " fill-opacity="1" fill-rule="nonzero"/><path fill="#100f0d" d="M 437.316406 720.464844 C 437.304688 720.445312 437.308594 720.347656 437.273438 720.15625 C 436.871094 718.234375 435.523438 715.648438 433.8125 714.640625 C 433.390625 714.398438 432.992188 714.277344 432.609375 714.277344 C 432.429688 714.277344 432.257812 714.300781 432.085938 714.351562 L 432.082031 714.355469 C 431.574219 714.511719 430.480469 715.019531 430.300781 715.632812 C 430.21875 715.933594 430.375 716.308594 430.769531 716.757812 C 432.648438 718.875 436.527344 720.796875 437.316406 720.464844 Z M 438.8125 719.835938 C 439.097656 721.179688 438.371094 721.703125 438.042969 721.863281 C 437.789062 721.992188 437.484375 722.046875 437.144531 722.046875 C 434.902344 722.046875 431.101562 719.511719 429.585938 717.800781 C 428.625 716.707031 428.617188 715.785156 428.785156 715.195312 C 429.242188 713.609375 431.351562 712.925781 431.617188 712.847656 C 432.585938 712.550781 433.621094 712.699219 434.613281 713.285156 C 436.738281 714.535156 438.332031 717.523438 438.8125 719.835938 Z M 448.867188 719.671875 L 448.867188 719.675781 C 448.867188 719.675781 448.011719 717.582031 446.21875 716.140625 C 445.460938 715.59375 444.199219 714.960938 443.367188 714.960938 C 443.179688 714.960938 443.019531 714.992188 442.886719 715.066406 C 442.449219 715.3125 442.257812 716.148438 442.355469 717.421875 C 442.546875 720.015625 444.984375 722.65625 447.140625 723.5 C 447.96875 723.828125 448.632812 723.835938 448.964844 723.527344 C 449.164062 723.339844 449.746094 722.511719 448.867188 719.671875 Z M 450.351562 719.152344 C 451.195312 721.863281 451.085938 723.703125 450.039062 724.679688 C 449.574219 725.109375 448.972656 725.324219 448.269531 725.324219 C 447.75 725.324219 447.179688 725.207031 446.570312 724.972656 C 443.921875 723.933594 441.03125 720.871094 440.777344 717.539062 C 440.628906 715.5625 441.082031 714.265625 442.121094 713.683594 C 444 712.636719 446.847656 714.644531 447.167969 714.878906 L 447.191406 714.898438 C 449.347656 716.621094 450.3125 719.050781 450.351562 719.152344 Z M 454.1875 719.121094 C 453.09375 718.453125 452.324219 717.1875 451.898438 715.382812 C 451.449219 713.46875 451.535156 712.066406 452.164062 711.328125 C 452.722656 710.660156 453.597656 710.722656 453.632812 710.714844 L 453.695312 709.933594 L 453.765625 709.144531 C 453.695312 709.132812 452.082031 709.011719 450.980469 710.285156 C 449.988281 711.429688 449.777344 713.273438 450.363281 715.75 C 450.886719 717.988281 451.910156 719.585938 453.386719 720.476562 C 454.421875 721.113281 455.476562 721.261719 456.242188 721.261719 C 456.886719 721.261719 457.324219 721.15625 457.363281 721.144531 L 456.980469 719.617188 C 456.96875 719.617188 455.527344 719.949219 454.1875 719.121094 Z M 466.101562 699.558594 C 465.488281 695.265625 468.9375 694.613281 469.335938 694.550781 L 469.21875 693.769531 L 469.109375 692.984375 C 469.015625 693.003906 466.867188 693.324219 465.511719 695.136719 C 464.601562 696.347656 464.273438 697.914062 464.539062 699.777344 C 465.371094 705.5 468.925781 706.25 469.070312 706.277344 L 469.378906 704.730469 C 469.273438 704.707031 466.761719 704.101562 466.101562 699.558594 Z M 369.429688 649.464844 L 385.269531 664.839844 L 386.367188 663.707031 L 370.527344 648.332031 Z M 375.597656 641.488281 L 394.507812 660.289062 L 395.625 659.175781 L 376.707031 640.367188 Z M 385.257812 635.65625 L 403.753906 654.488281 L 404.875 653.378906 L 386.378906 634.554688 Z M 424.238281 415.914062 L 425.816406 415.914062 L 425.816406 397.535156 L 424.238281 397.535156 Z M 438.082031 416.582031 L 438.082031 392.117188 L 436.503906 392.117188 L 436.503906 416.582031 Z M 448.375 423.535156 L 449.949219 423.535156 L 449.949219 386.867188 L 448.375 386.867188 Z M 458.488281 410.675781 L 460.066406 410.675781 L 460.066406 382.398438 L 458.488281 382.398438 Z M 399.851562 501.746094 L 378.605469 521.148438 L 391.078125 495.011719 L 389.65625 494.335938 L 373.699219 527.769531 L 400.910156 502.910156 Z M 468.074219 401.304688 L 468.308594 409.964844 L 469.886719 409.921875 L 469.652344 401.261719 Z M 382.976562 310.636719 L 381.886719 313.335938 L 388.101562 308.570312 C 388.101562 308.570312 384.726562 308.4375 382.976562 310.636719 Z M 390.277344 329.851562 C 388.164062 331.101562 385.398438 333.011719 384.863281 334.730469 C 384.683594 335.296875 384.734375 335.851562 384.992188 336.324219 C 386.367188 338.792969 392.234375 345.195312 392.484375 345.464844 L 393.648438 344.398438 C 393.585938 344.335938 387.652344 337.863281 386.371094 335.5625 C 386.347656 335.519531 386.296875 335.425781 386.367188 335.199219 C 386.847656 333.660156 390.941406 331.160156 393.414062 329.9375 L 392.714844 328.527344 C 392.46875 328.652344 391.546875 329.113281 390.417969 329.773438 C 389.164062 329.078125 382.742188 325.683594 379.304688 327.492188 L 374.136719 325.929688 L 379.675781 331.515625 C 379.675781 331.515625 384.898438 329.089844 390.277344 329.851562 Z M 420.980469 297.96875 C 407.15625 295.15625 400.378906 304.140625 400.378906 304.140625 C 406.355469 300.519531 434.804688 300.789062 420.980469 297.96875 Z M 407.554688 325.34375 C 413.335938 319.972656 428.367188 317.558594 428.367188 317.558594 L 429.574219 310.046875 L 423.929688 313.804688 C 412.390625 315.945312 407.554688 325.34375 407.554688 325.34375 Z M 460.21875 329.675781 L 461.730469 330.136719 C 464.1875 322.023438 472.367188 322.738281 472.707031 322.769531 L 472.867188 321.207031 C 472.773438 321.195312 463.058594 320.308594 460.21875 329.675781 Z M 448.652344 369.058594 C 448.449219 369.238281 427.996094 386.765625 417.78125 390.347656 L 418.300781 391.832031 C 428.804688 388.15625 448.828125 370.980469 449.679688 370.253906 Z M 429.300781 344.996094 C 422.410156 350.023438 402.382812 364.03125 392.628906 364.742188 C 394.027344 366.878906 398.324219 371.140625 408.90625 367.375 C 419.699219 363.546875 426.703125 350.621094 429.300781 344.996094 Z M 409.433594 368.867188 C 406.269531 369.988281 403.601562 370.429688 401.359375 370.429688 C 393.035156 370.429688 390.609375 364.320312 390.585938 364.242188 L 390.148438 363.085938 L 391.378906 363.175781 C 391.558594 363.1875 391.742188 363.195312 391.929688 363.195312 C 402.566406 363.195312 430.421875 342.21875 430.707031 342.003906 L 431.871094 341.121094 C 429.648438 340.070312 428.007812 338.832031 427.886719 338.734375 L 428.839844 337.484375 C 428.890625 337.519531 433.996094 341.382812 438.09375 341.011719 L 438.234375 342.582031 C 438 342.605469 437.765625 342.613281 437.53125 342.613281 C 435.8125 342.613281 434.039062 342.078125 432.488281 341.398438 L 431.921875 342.910156 C 431.601562 343.753906 423.972656 363.707031 409.433594 368.867188 Z M 403.726562 340.730469 L 396.609375 338.714844 L 397.035156 337.199219 L 404.148438 339.214844 L 403.726562 340.730469 " fill-opacity="1" fill-rule="nonzero"/><path fill="#ffffff" d="M 729.945312 544.023438 L 545.65625 595.460938 C 538 597.597656 530.421875 591.808594 530.484375 583.855469 L 531.660156 421.992188 C 531.695312 416.421875 535.578125 411.621094 541.015625 410.40625 L 733.859375 367.480469 C 741.636719 365.757812 748.898438 371.964844 748.394531 379.910156 L 738.667969 533.265625 C 738.339844 538.339844 734.847656 542.65625 729.945312 544.023438 " fill-opacity="1" fill-rule="nonzero"/><path fill="#100f0d" d="M 675.257812 493.589844 C 674.851562 493.589844 674.441406 493.632812 674.027344 493.726562 L 625.78125 504.566406 C 623.222656 505.136719 621.4375 507.367188 621.4375 509.984375 L 621.4375 549.789062 C 621.4375 551.53125 622.234375 553.132812 623.605469 554.195312 C 624.984375 555.257812 626.75 555.605469 628.429688 555.164062 L 675.554688 542.667969 C 677.921875 542.039062 679.621094 539.898438 679.6875 537.453125 L 680.804688 499.316406 C 680.851562 497.585938 680.121094 495.960938 678.78125 494.859375 C 677.773438 494.027344 676.535156 493.589844 675.257812 493.589844 Z M 626.980469 556.929688 C 625.4375 556.929688 623.921875 556.421875 622.644531 555.445312 C 620.878906 554.078125 619.859375 552.023438 619.859375 549.789062 L 619.859375 509.984375 C 619.859375 506.621094 622.152344 503.757812 625.4375 503.023438 L 673.683594 492.1875 C 675.84375 491.707031 678.074219 492.230469 679.789062 493.644531 C 681.5 495.054688 682.449219 497.144531 682.378906 499.359375 L 681.265625 537.496094 C 681.171875 540.636719 678.992188 543.386719 675.960938 544.1875 L 628.835938 556.683594 C 628.21875 556.851562 627.597656 556.929688 626.980469 556.929688 " fill-opacity="1" fill-rule="nonzero"/><path fill="#ffffff" d="M 716.488281 616.945312 L 620.398438 652.972656 C 618.171875 653.804688 615.691406 653.652344 613.589844 652.535156 L 585.179688 637.546875 C 578.644531 634.105469 579.503906 624.484375 586.546875 622.25 L 688.902344 589.773438 C 691.011719 589.109375 693.289062 589.300781 695.25 590.308594 L 717.390625 601.757812 C 723.800781 605.074219 723.246094 614.414062 716.488281 616.945312 " fill-opacity="1" fill-rule="nonzero"/><g clip-path="url(#872dac7ab0)"><path fill="#100f0d" d="M 542.425781 589.289062 C 542.421875 587.730469 542.027344 432.875 542.425781 426.53125 C 542.773438 421 546.5625 418.867188 547.132812 418.574219 L 739.109375 375.320312 L 738.757812 373.789062 L 546.703125 417.058594 L 546.542969 417.105469 C 546.332031 417.207031 541.277344 419.59375 540.851562 426.429688 C 540.449219 432.824219 540.832031 582.90625 540.851562 589.292969 Z M 736.492188 367.980469 C 735.679688 367.980469 734.851562 368.074219 734.027344 368.257812 L 541.1875 411.175781 C 536.078125 412.316406 532.480469 416.761719 532.449219 421.996094 L 531.269531 583.863281 C 531.242188 587.402344 532.84375 590.660156 535.652344 592.816406 C 538.464844 594.964844 542.035156 595.644531 545.441406 594.703125 L 729.734375 543.265625 C 734.304688 541.984375 737.574219 537.949219 737.878906 533.214844 L 747.605469 379.859375 C 747.832031 376.324219 746.414062 372.976562 743.71875 370.664062 C 741.667969 368.910156 739.121094 367.980469 736.492188 367.980469 Z M 542.402344 596.695312 C 539.648438 596.695312 536.957031 595.796875 534.695312 594.066406 C 531.488281 591.617188 529.664062 587.890625 529.695312 583.851562 L 530.871094 421.984375 C 530.90625 416.015625 535.015625 410.9375 540.84375 409.636719 L 733.6875 366.710938 C 737.632812 365.835938 741.667969 366.839844 744.746094 369.472656 C 747.820312 372.101562 749.441406 375.925781 749.179688 379.964844 L 739.453125 533.3125 C 739.109375 538.71875 735.375 543.328125 730.160156 544.78125 L 545.871094 596.214844 C 544.71875 596.535156 543.554688 596.695312 542.402344 596.695312 " fill-opacity="1" fill-rule="nonzero"/></g><path fill="#100f0d" d="M 618.972656 646.710938 L 586.023438 629.035156 L 585.277344 630.425781 L 618.230469 648.101562 Z M 690.96875 590.179688 C 690.359375 590.222656 689.742188 590.335938 689.144531 590.527344 L 586.785156 623.007812 C 583.835938 623.9375 581.828125 626.4375 581.558594 629.515625 C 581.28125 632.59375 582.808594 635.410156 585.546875 636.851562 L 613.953125 651.839844 C 615.855469 652.84375 618.113281 652.992188 620.121094 652.234375 L 716.210938 616.207031 C 719.046875 615.148438 720.914062 612.617188 721.089844 609.597656 C 721.269531 606.585938 719.71875 603.847656 717.03125 602.460938 L 694.886719 591.011719 C 693.660156 590.378906 692.3125 590.101562 690.96875 590.179688 Z M 618.050781 654.273438 C 616.394531 654.371094 614.71875 654.027344 613.21875 653.238281 L 584.808594 638.25 C 581.5 636.5 579.652344 633.101562 579.984375 629.375 C 580.320312 625.648438 582.738281 622.628906 586.304688 621.496094 L 688.664062 589.023438 C 690.988281 588.289062 693.449219 588.492188 695.613281 589.613281 L 717.753906 601.058594 C 721 602.738281 722.882812 606.046875 722.667969 609.691406 C 722.453125 613.34375 720.191406 616.40625 716.765625 617.683594 L 620.675781 653.714844 C 619.824219 654.027344 618.9375 654.21875 618.050781 654.273438 " fill-opacity="1" fill-rule="nonzero"/><path fill="#ffffff" d="M 666.332031 520.398438 L 672.605469 533.824219 C 672.929688 534.53125 673.097656 535.300781 673.097656 536.078125 L 673.097656 606.136719 C 673.097656 608.433594 671.632812 610.46875 669.457031 611.195312 L 648.257812 618.257812 C 644.75 619.429688 641.136719 616.75 641.25 613.046875 L 643.289062 543.085938 C 643.3125 542.328125 643.171875 541.570312 642.875 540.875 L 638.003906 529.25 C 636.734375 526.222656 638.472656 522.789062 641.65625 522.011719 L 660.246094 517.472656 C 662.710938 516.871094 665.261719 518.09375 666.332031 520.398438 " fill-opacity="1" fill-rule="nonzero"/><path fill="#100f0d" d="M 660.433594 518.238281 L 641.839844 522.777344 C 640.546875 523.089844 639.460938 523.953125 638.859375 525.140625 C 638.261719 526.328125 638.210938 527.714844 638.730469 528.941406 L 643.601562 540.566406 C 643.941406 541.375 644.101562 542.230469 644.078125 543.109375 L 642.039062 613.074219 C 641.996094 614.574219 642.660156 615.949219 643.867188 616.847656 C 645.074219 617.746094 646.589844 617.980469 648.011719 617.507812 L 669.210938 610.441406 C 671.0625 609.828125 672.308594 608.097656 672.308594 606.136719 L 672.308594 536.078125 C 672.308594 535.40625 672.167969 534.761719 671.890625 534.15625 L 665.617188 520.730469 C 664.714844 518.773438 662.53125 517.726562 660.433594 518.238281 Z M 646.554688 619.328125 C 645.265625 619.328125 644.003906 618.910156 642.925781 618.109375 C 641.296875 616.902344 640.398438 615.050781 640.460938 613.023438 L 642.5 543.066406 C 642.519531 542.414062 642.402344 541.78125 642.148438 541.175781 L 637.277344 529.550781 C 636.578125 527.898438 636.648438 526.035156 637.453125 524.433594 C 638.261719 522.832031 639.722656 521.667969 641.464844 521.25 L 660.054688 516.710938 C 662.871094 516.027344 665.820312 517.429688 667.046875 520.066406 L 673.3125 533.492188 C 673.695312 534.304688 673.886719 535.179688 673.886719 536.078125 L 673.886719 606.136719 C 673.886719 608.773438 672.210938 611.109375 669.710938 611.9375 L 648.511719 619.007812 C 647.863281 619.21875 647.207031 619.328125 646.554688 619.328125 " fill-opacity="1" fill-rule="nonzero"/></svg>